<svg width="100" height="100" viewBox="0 0 100 100" fill="none" xmlns="http://www.w3.org/2000/svg">
<path d="M15.4573 33.3427C12.1701 33.3427 9.55449 35.9584 9.55449 39.2455V63.833C9.55449 67.1202 12.1701 69.7358 15.4573 69.7358C18.7445 69.7358 21.3601 67.1202 21.3601 63.833V39.2455C21.3601 35.9584 18.7445 33.3427 15.4573 33.3427ZM84.3023 33.3427C81.0151 33.3427 78.3995 35.9584 78.3995 39.2455V63.833C78.3995 67.1202 81.0151 69.7358 84.3023 69.7358C87.5895 69.7358 90.2051 67.1202 90.2051 63.833V39.2455C90.2051 35.9584 87.5895 33.3427 84.3023 33.3427Z" fill="#A4C639"/>
<path d="M40 78.8748C36.7129 78.8748 34.1418 78.8748 34.1418 78.8748V91.8917C34.1418 95.1788 36.7574 97.7944 40.0446 97.7944C43.3318 97.7944 45.9474 95.1788 45.9474 91.8917V78.8748C45.9474 78.8748 43.2872 78.8748 40 78.8748ZM59.7146 78.8748C56.4275 78.8748 53.8118 78.8748 53.8118 78.8748V91.8917C53.8118 95.1788 56.4275 97.7944 59.7146 97.7944C63.0018 97.7944 65.6174 95.1788 65.6174 91.8917V78.8748C65.6174 78.8748 63.0018 78.8748 59.7146 78.8748Z" fill="#A4C639"/>
<path d="M33.5362 2.36427C33.3966 2.36569 33.2666 2.40169 33.1384 2.47274C32.7175 2.70606 32.5791 3.18974 32.813 3.61172L36.9712 11.1236C28.971 15.2863 23.5674 23.1971 23.5565 32.276H76.2027C76.1919 23.1971 70.7882 15.2863 62.7881 11.1236L66.9462 3.61172C67.1801 3.18974 67.0417 2.70606 66.6208 2.47274C66.4926 2.40169 66.3626 2.3656 66.2231 2.36427C65.9244 2.36138 65.6412 2.51064 65.4818 2.79816L61.2694 10.3914C57.8235 8.86286 53.9584 8.00493 49.8796 8.00493C45.8009 8.00493 41.9357 8.86286 38.4898 10.3914L34.2774 2.79816C34.118 2.51064 33.8349 2.3614 33.5362 2.36427ZM23.5565 34.3551V72.511C23.5565 76.0365 26.3948 78.8748 29.9204 78.8748H69.8389C73.3644 78.8748 76.2027 76.0365 76.2027 72.511V34.3551H23.5565Z" fill="#A4C639"/>
<path d="M37.7304 18.2467C36.5286 18.2467 35.5338 19.2415 35.5338 20.4433C35.5338 21.6451 36.5286 22.6399 37.7304 22.6399C38.9322 22.6399 39.927 21.6451 39.927 20.4433C39.927 19.2415 38.9322 18.2467 37.7304 18.2467ZM62.0287 18.2467C60.8269 18.2467 59.8321 19.2415 59.8321 20.4433C59.8321 21.6451 60.8269 22.6399 62.0287 22.6399C63.2305 22.6399 64.2253 21.6451 64.2253 20.4433C64.2253 19.2415 63.2305 18.2467 62.0287 18.2467Z" fill="white"/>
</svg>
