<svg width="100" height="100" viewBox="0 0 100 100" fill="none" xmlns="http://www.w3.org/2000/svg">
<path d="M69.4769 9.45834C68.518 12.4011 66.9666 15.1285 65.0967 17.397V17.4011C63.21 19.6825 60.6898 21.6997 57.8861 23.0371C55.313 24.2645 52.4924 24.9255 49.6856 24.7067L48.8266 24.6397L48.7135 23.7844C48.3488 21.0261 48.7699 18.2337 49.6568 15.6497C50.6888 12.6426 52.3605 9.89887 54.1542 7.8198L54.1539 7.81949C56.0102 5.64506 58.4995 3.75317 61.1654 2.38239C63.8403 1.0069 66.7131 0.146802 69.3278 0.0402744L70.3162 0L70.4245 0.987434C70.7412 3.87532 70.356 6.76002 69.4769 9.45834Z" fill="#CECCCD"/>
<path d="M87.6497 35.4013C86.7022 35.9876 77.5437 41.6547 77.6572 53.0775C77.777 66.8484 89.4535 71.6221 90.098 71.8856H90.1022L91.0462 72.2764L90.7324 73.2139C90.7138 73.2695 90.7349 73.2104 90.7078 73.2976C90.4098 74.2522 88.3901 80.7226 83.8276 87.3897C81.7573 90.4138 79.648 93.4335 77.1575 95.7626C74.5788 98.1742 71.6339 99.8021 67.9958 99.8697C64.5668 99.9341 62.3219 98.9627 59.9882 97.953C57.763 96.9902 55.4488 95.9887 51.8274 95.9887C48.0232 95.9887 45.5914 97.0247 43.2491 98.0227C41.0442 98.962 38.9118 99.8704 35.8397 99.993H35.8355C32.2882 100.125 29.2121 98.3955 26.4784 95.8342C23.8629 93.3839 21.5714 90.1752 19.4833 87.155C14.7696 80.3488 10.6702 70.4456 9.40367 60.3757C8.36191 52.0928 9.23268 43.6787 13.2372 36.7297C15.4727 32.8417 18.5971 29.6687 22.2501 27.4547C25.8864 25.2508 30.0467 23.9966 34.3771 23.9317V23.9316C38.1685 23.8628 41.7433 25.2815 44.8713 26.5228C47.0851 27.4013 49.0574 28.184 50.5361 28.184C51.8424 28.184 53.768 27.4248 56.0126 26.5398C59.8037 25.0452 64.4417 23.2168 69.346 23.7045C71.4055 23.7941 75.6954 24.2874 80.0805 26.6639C82.874 28.1778 85.7075 30.4508 88.0368 33.8597L88.6509 34.7587L87.7335 35.3511C87.6844 35.3828 87.7321 35.3505 87.6497 35.4013Z" fill="#CECCCD"/>
</svg>
