<svg width="100" height="100" viewBox="0 0 100 100" fill="none" xmlns="http://www.w3.org/2000/svg">
<path fill-rule="evenodd" clip-rule="evenodd" d="M57.6407 12.5461C56.7281 12.7148 55.9706 13.1118 55.3438 13.7496C54.9232 14.1777 54.5501 14.7826 54.3798 15.3125C54.344 15.4242 50.5366 30.6258 45.9189 49.0938L37.5232 82.6719L37.5077 83.1938C37.4954 83.6058 37.5036 83.7803 37.5466 84.0219C37.865 85.8107 39.2242 87.1637 40.9954 87.4548C41.4659 87.5321 42.2086 87.5047 42.65 87.3937C43.8643 87.0883 44.8698 86.2863 45.4049 85.1963C45.4875 85.0282 45.5844 84.7992 45.6203 84.6875C45.6561 84.5758 49.4635 69.3742 54.0812 50.9063L62.4769 17.3281L62.4924 16.8062C62.5095 16.2314 62.4674 15.8904 62.3219 15.4256C61.8521 13.9256 60.5745 12.8081 59.0336 12.5494C58.679 12.4899 57.9539 12.4882 57.6407 12.5461ZM28.5313 29.2022C27.8955 29.3078 27.1799 29.6046 26.7019 29.961C26.4349 30.1601 9.73027 45.5595 9.42933 45.8839C9.0573 46.285 8.70008 46.8917 8.53292 47.4063C8.32917 48.0333 8.27008 48.8578 8.38646 49.4492C8.53327 50.1953 8.85067 50.8754 9.29249 51.3904C9.61314 51.7642 26.1042 69.5209 26.3071 69.7109C26.8907 70.2574 27.5446 70.5924 28.3758 70.7709C28.7478 70.8508 29.5972 70.85 29.9671 70.7696C30.8064 70.5869 31.4655 70.2404 32.0618 69.668C32.8607 68.9012 33.289 67.9443 33.3328 66.8281C33.3616 66.0936 33.2349 65.4966 32.9081 64.8269C32.8071 64.6199 32.6411 64.3387 32.5392 64.2019C32.4373 64.0651 29.2206 60.5795 25.3911 56.4561C20.37 51.0498 18.4361 48.9478 18.4564 48.9186C18.4718 48.8963 21.543 46.0572 25.2813 42.6095C29.0196 39.1618 32.1517 36.2608 32.2416 36.1627C32.7664 35.5901 33.0966 34.9362 33.2709 34.1243C33.359 33.714 33.3513 32.9015 33.2551 32.4688C33.0713 31.641 32.6785 30.9337 32.0722 30.3387C31.5172 29.794 30.8749 29.444 30.0938 29.2606C29.6765 29.1627 28.936 29.135 28.5313 29.2022ZM70.2657 29.1909C68.7459 29.41 67.4566 30.4426 66.9145 31.875C66.6914 32.4648 66.6028 33.3035 66.6985 33.9219C66.8314 34.7817 67.2207 35.5896 67.8008 36.2098C67.8846 36.2994 71.0047 39.1865 74.7344 42.6255C78.4641 46.0645 81.5283 48.8964 81.5437 48.9187C81.564 48.9478 79.6301 51.05 74.6242 56.4405C70.8031 60.5553 67.6151 63.9992 67.5398 64.0938C66.6909 65.1592 66.432 66.6798 66.8746 68C67.2103 69.0014 67.9955 69.9152 68.9219 70.3825C69.8901 70.8709 70.9718 70.9724 72.0157 70.6725C72.5836 70.5093 73.258 70.1219 73.7098 69.6993C74.061 69.3707 90.7366 51.3763 90.8938 51.1563C91.2305 50.6849 91.4688 50.132 91.5985 49.5215C91.6939 49.0729 91.6939 48.3646 91.5985 47.916C91.4306 47.1255 91.0679 46.4131 90.5562 45.8688C90.3259 45.6238 73.6605 30.2424 73.4063 30.0402C72.6905 29.4708 71.7402 29.1503 70.7969 29.1603C70.6079 29.1623 70.3688 29.176 70.2657 29.1909Z" fill="white" stroke="#202020" stroke-width="2"/>
</svg>
