<svg width="100" height="100" viewBox="0 0 100 100" fill="none" xmlns="http://www.w3.org/2000/svg">
<path d="M97.9358 41.4051C95.684 39.8427 90.5236 39.2568 86.4891 40.038C86.02 36.1319 83.862 32.7141 80.109 29.6869L77.951 28.1244L76.4498 30.3704C74.5733 33.3 73.635 37.4014 73.9165 41.3075C74.0103 42.6746 74.4795 45.1159 75.8868 47.2643C74.5733 48.0455 71.8523 49.022 68.287 49.022H0.451082L0.263431 49.8032C-0.393348 53.7093 -0.393348 65.9159 7.30035 75.2905C13.1175 82.4191 21.7495 86.0323 33.1024 86.0323C57.6847 86.0323 75.8868 74.2163 84.425 52.8305C87.8027 52.9281 95.0272 52.8305 98.6864 45.5065C98.7803 45.3112 98.9679 44.9206 99.6247 43.4558L100 42.6746L97.9358 41.4051ZM54.6823 13.8672H44.3614V23.6324H54.6823V13.8672ZM54.6823 25.5855H44.3614V35.3507H54.6823V25.5855ZM42.4849 25.5855H32.1641V35.3507H42.4849V25.5855ZM30.2876 25.5855H19.9668V35.3507H30.2876V25.5855ZM18.0903 37.3037H7.76948V47.069H18.0903V37.3037ZM30.2876 37.3037H19.9668V47.069H30.2876V37.3037ZM42.4849 37.3037H32.1641V47.069H42.4849V37.3037ZM54.6823 37.3037H44.3614V47.069H54.6823V37.3037ZM66.8796 37.3037H56.5588V47.069H66.8796V37.3037Z" fill="#2396ED"/>
</svg>
