<svg width="100" height="100" viewBox="0 0 100 100" fill="none" xmlns="http://www.w3.org/2000/svg">
<path d="M66.6666 66.6667C75.8714 66.6667 83.3333 59.2047 83.3333 50C83.3333 40.7953 75.8714 33.3333 66.6666 33.3333C57.4619 33.3333 50 40.7953 50 50C50 59.2047 57.4619 66.6667 66.6666 66.6667Z" fill="#19BCFE"/>
<path fill-rule="evenodd" clip-rule="evenodd" d="M33.3333 100C42.538 100 50 92.5381 50 83.3333C50 80.8206 50 75.2651 50 66.6667C42.5126 66.6667 36.9571 66.6667 33.3333 66.6667C24.1285 66.6667 16.6666 74.1286 16.6666 83.3333C16.6666 92.5381 24.1285 100 33.3333 100Z" fill="#09CF83"/>
<path fill-rule="evenodd" clip-rule="evenodd" d="M33.3333 66.6667C36.4015 66.6667 41.9571 66.6667 50 66.6667V33.3333C41.9571 33.3333 36.4015 33.3333 33.3333 33.3333C24.1285 33.3333 16.6666 40.7953 16.6666 50C16.6666 59.2047 24.1285 66.6667 33.3333 66.6667Z" fill="#A259FF"/>
<path fill-rule="evenodd" clip-rule="evenodd" d="M33.3333 33.3333C36.4015 33.3333 41.9571 33.3333 50 33.3333V0C41.9571 0 36.4015 0 33.3333 0C24.1285 0 16.6666 7.46192 16.6666 16.6667C16.6666 25.8714 24.1285 33.3333 33.3333 33.3333Z" fill="#F24E1E"/>
<path fill-rule="evenodd" clip-rule="evenodd" d="M66.6666 33.3333H50V0H66.6666C75.8714 0 83.3333 7.46192 83.3333 16.6667C83.3333 25.8714 75.8714 33.3333 66.6666 33.3333Z" fill="#FF7262"/>
</svg>
