<svg width="100" height="100" viewBox="0 0 100 100" fill="none" xmlns="http://www.w3.org/2000/svg">
<path d="M94.5651 17.9276C88.5236 11.8834 78.7788 11.7149 72.5318 17.5466C72.2321 17.8294 72.0575 18.2201 72.0468 18.6321C72.049 19.0423 72.2105 19.4356 72.4972 19.7291L74.4719 21.7731C75.0043 22.3033 75.8453 22.3623 76.4465 21.9117C78.0129 20.7295 79.9232 20.0927 81.8856 20.0986C85.5676 20.0825 88.8945 22.2924 90.3072 25.6926C91.72 29.0928 90.9386 33.0096 88.3293 35.6074C75.7421 48.1946 58.94 12.9274 20.809 31.0691C19.4975 31.6821 18.5021 32.8155 18.0634 34.1951C17.6248 35.5747 17.7828 37.0748 18.4994 38.3327L25.0355 49.6381C26.4545 52.0856 29.5737 52.9438 32.045 51.5666L32.2067 51.4742L32.0797 51.5666L34.9782 49.9383C38.2085 47.9325 41.2606 45.653 44.101 43.1251C44.7023 42.6093 45.5899 42.6093 46.1912 43.1251C46.5461 43.4035 46.7545 43.8288 46.757 44.2799C46.7653 44.7183 46.5844 45.1391 46.2604 45.4346C43.2688 48.0902 40.05 50.4782 36.6411 52.5712H36.5487L33.6502 54.1879C32.425 54.8823 31.0397 55.2445 29.6315 55.2388C26.6716 55.239 23.9335 53.67 22.4372 51.1162L16.2591 40.4344C4.38789 48.8182 -2.81797 64.9736 1.05056 85.4711C1.19234 86.177 1.80872 86.6874 2.52869 86.6952H9.57288C10.3305 86.6952 10.9693 86.1305 11.0626 85.3787C11.712 80.2224 16.0969 76.3551 21.294 76.3551C26.491 76.3551 30.8759 80.2224 31.5254 85.3787C31.624 86.1323 32.2665 86.6952 33.0266 86.6952H39.886C40.6436 86.6952 41.2825 86.1305 41.3757 85.3787C42.046 80.2364 46.4271 76.3894 51.6129 76.3894C56.7987 76.3894 61.1797 80.2364 61.8501 85.3787C61.9433 86.1305 62.5821 86.6952 63.3397 86.6952H70.1183C70.9385 86.6952 71.6069 86.0371 71.6195 85.217C71.7812 75.667 74.3564 64.6965 81.7008 59.1997C107.141 40.1688 100.455 23.8517 94.5651 17.9276ZM68.6171 46.7165L63.767 44.2799C63.7617 42.8405 64.7638 41.5935 66.1706 41.289C67.5773 40.9844 69.0055 41.7053 69.5959 43.018C70.1864 44.3306 69.7783 45.8775 68.6171 46.728V46.7165Z" fill="white"/>
</svg>
