<svg width="100" height="100" viewBox="0 0 100 100" fill="none" xmlns="http://www.w3.org/2000/svg">
<path fill-rule="evenodd" clip-rule="evenodd" d="M56.6178 43.8881C55.44 44.2178 54.2456 44.5519 52.8631 44.9275C52.1878 45.1187 52.034 45.1622 51.4056 44.3981C50.6518 43.4981 50.099 42.9159 49.0434 42.3862C45.8771 40.745 42.8112 41.2216 39.9465 43.1806C36.529 45.51 34.7699 48.9512 34.8203 53.2397C34.8703 57.4753 37.6346 60.9697 41.6053 61.5519C45.0228 62.0284 47.8875 60.7578 50.149 58.0578C50.6012 57.4756 51.0037 56.8397 51.5062 56.0987H41.8062C40.7506 56.0987 40.4993 55.4106 40.8512 54.5103C41.5046 52.8691 42.7109 50.1162 43.4143 48.7397C43.5653 48.4219 43.9171 47.8925 44.6709 47.8925H60.8443C61.5709 45.4675 62.7496 43.1762 64.3221 41.0081C67.9912 35.9253 72.414 33.2781 78.3946 32.1666C83.5212 31.2134 88.3459 31.7428 92.7184 34.8666C96.689 37.7256 99.1515 41.5903 99.8049 46.6731C100.659 53.8203 98.6993 59.6444 94.0253 64.6209C90.7081 68.1681 86.6371 70.3919 81.9631 71.3978C81.0715 71.5716 80.18 71.6541 79.3025 71.7353C78.8446 71.7778 78.3906 71.8197 77.9425 71.8744C73.3687 71.7684 69.1974 70.3919 65.679 67.2153C63.2049 64.9622 61.5009 62.1934 60.6537 58.9703C60.0659 60.2209 59.3631 61.4184 58.5425 62.5578C54.9237 67.5875 50.1993 70.7112 44.2187 71.5584C39.2931 72.2466 34.7196 71.2406 30.6989 68.0641C26.9797 65.0991 24.8689 61.1812 24.316 56.3106C23.6626 50.5397 25.2709 45.3512 28.588 40.7981C32.1565 35.8744 36.8809 32.7506 42.6606 31.6388C47.3849 30.7388 51.9081 31.3213 55.9793 34.2331C58.6428 36.0859 60.5528 38.6275 61.8093 41.6981C62.1109 42.1747 61.9096 42.4394 61.3065 42.5981C59.5453 43.0694 58.0946 43.4753 56.6178 43.8881ZM89.869 49.9188C89.879 50.0966 89.8893 50.2841 89.904 50.485C89.6528 55.0381 87.4915 58.4266 83.5212 60.5972C80.8575 62.0266 78.0931 62.1856 75.329 60.915C71.7103 59.2206 69.8003 55.0381 70.705 50.9084C71.8109 45.9319 74.8262 42.8081 79.5003 41.6963C84.275 40.5316 88.8487 43.4963 89.7534 48.7378C89.8243 49.1128 89.8453 49.4875 89.869 49.9188Z" fill="#00ACD7"/>
<path d="M7.63938 43.2866C7.53885 43.4453 7.5891 43.5513 7.79013 43.5513L22.7581 43.6044C22.9089 43.6044 23.1602 43.4453 23.2607 43.2866L24.1151 41.91C24.2156 41.7512 24.1654 41.5925 23.9643 41.5925H9.24766C9.04663 41.5925 8.79532 41.6984 8.69482 41.8572L7.63938 43.2866Z" fill="#00ACD7"/>
<path d="M0.0502591 48.1572C-0.0502591 48.3159 2.32831e-08 48.4219 0.201036 48.4219L20.7477 48.3691C20.9488 48.3691 21.1498 48.2631 21.2001 48.0513L21.6022 46.7806C21.6524 46.6219 21.5519 46.4631 21.3508 46.4631H1.65855C1.45751 46.4631 1.20622 46.5688 1.1057 46.7278L0.0502591 48.1572Z" fill="#00ACD7"/>
<path d="M12.2129 52.9753C12.1123 53.1341 12.1626 53.2928 12.3636 53.2928L20.0943 53.3459C20.2451 53.3459 20.4461 53.1872 20.4461 52.9753L20.5466 51.7047C20.5466 51.4928 20.4461 51.3341 20.2451 51.3341H13.4191C13.218 51.3341 13.017 51.4928 12.9165 51.6516L12.2129 52.9753Z" fill="#00ACD7"/>
</svg>
