<svg width="100" height="100" viewBox="0 0 100 100" fill="none" xmlns="http://www.w3.org/2000/svg">
<g clip-path="url(#clip0_333_1066)">
<path fill-rule="evenodd" clip-rule="evenodd" d="M49.9981 1.24576C22.3895 1.24576 0 23.6315 0 51.2437C0 73.3362 14.3247 92.0715 34.1916 98.6859C36.6922 99.149 37.6113 97.5989 37.6113 96.2775C37.6113 95.0853 37.5614 91.147 37.5411 86.9725C23.6298 89.9973 20.6973 81.0706 20.6973 81.0706C18.4236 75.2904 15.1459 73.7533 15.1459 73.7533C10.6097 70.6472 15.4911 70.7154 15.4911 70.7154C20.5108 71.0662 23.1536 75.8645 23.1536 75.8645C27.6161 83.5086 34.8541 81.2958 37.7053 80.0204C38.1556 76.789 39.4475 74.5818 40.8795 73.3325C29.7733 72.072 18.0988 67.7831 18.0988 48.6231C18.0988 43.1659 20.055 38.7036 23.2495 35.2043C22.7292 33.9422 21.0166 28.8597 23.7313 21.974C23.7313 21.974 27.9297 20.6287 37.4858 27.099C41.472 25.9936 45.748 25.4362 49.9945 25.4178C54.2445 25.4362 58.528 25.9917 62.5198 27.099C72.063 20.6325 76.2577 21.974 76.2577 21.974C78.9761 28.8615 77.2709 33.9476 76.7505 35.2045C79.9561 38.7036 81.8958 43.1659 81.8958 48.6231C81.8958 67.8273 70.1953 72.0497 59.065 73.2881C60.8589 74.8383 62.4608 77.8815 62.4608 82.5433C62.4608 89.2295 62.4036 94.6183 62.4036 96.2626C62.4036 97.5933 63.3042 99.149 65.8398 98.6617C85.6955 92.0439 100.002 73.3064 100.002 51.227C100.002 23.6184 77.6161 1.22888 50.0019 1.22888L49.9981 1.24576Z" fill="white"/>
</g>
<defs>
<clipPath id="clip0_333_1066">
<rect width="100" height="100" fill="white"/>
</clipPath>
</defs>
</svg>
