<svg width="100" height="100" viewBox="0 0 100 100" fill="none" xmlns="http://www.w3.org/2000/svg">
<g clip-path="url(#clip0_333_1068)">
<path d="M98.113 45.5451L54.4525 1.88919C51.9379 -0.625661 47.8607 -0.625661 45.3461 1.88919L36.2803 10.9557L47.7793 22.4556C50.4567 21.5522 53.5166 22.1545 55.6488 24.2868C57.7891 26.4273 58.3913 29.52 57.4636 32.2058L68.5476 43.2907C71.2331 42.3629 74.3256 42.9651 76.4659 45.1056C79.4606 48.1006 79.4606 52.9513 76.4659 55.9382C73.4711 58.9332 68.6208 58.9332 65.626 55.9382C63.3718 53.6838 62.8184 50.3795 63.9577 47.6042L53.6224 37.268V64.4757C54.3549 64.8338 55.0384 65.3221 55.6488 65.9243C58.6436 68.9194 58.6436 73.77 55.6488 76.7651C52.654 79.7601 47.8038 79.7601 44.8171 76.7651C41.8223 73.77 41.8223 68.9194 44.8171 65.9243C45.5577 65.1837 46.4122 64.6303 47.3236 64.2559V36.796C46.4122 36.4216 45.5577 35.8682 44.8171 35.1276C42.5466 32.865 42.0013 29.5363 43.1651 26.7529L31.8207 15.4075L1.88904 45.3498C-0.62561 47.8646 -0.62561 51.9421 1.88904 54.4569L45.5495 98.121C48.0642 100.636 52.1413 100.636 54.656 98.121L98.113 54.6685C100.628 52.1455 100.628 48.0681 98.113 45.5451Z" fill="#F05133"/>
</g>
<defs>
<clipPath id="clip0_333_1068">
<rect width="100" height="100" rx="50" fill="white"/>
</clipPath>
</defs>
</svg>
