<svg width="100" height="100" viewBox="0 0 100 100" fill="none" xmlns="http://www.w3.org/2000/svg">
<path fill-rule="evenodd" clip-rule="evenodd" d="M58.5333 11.4456L79.0701 23.3029C79.6484 22.6904 80.3239 22.1495 81.0902 21.7045C85.3494 19.256 90.7819 20.7098 93.2559 24.9691C95.7043 29.2283 94.2506 34.6608 89.9913 37.1348C89.2309 37.5719 88.4323 37.8847 87.6194 38.0793V61.8031C88.4234 61.9982 89.2133 62.3089 89.9658 62.7415C94.2506 65.2154 95.7043 70.6479 93.2304 74.9072C90.7819 79.1665 85.3239 80.6202 81.0647 78.1718C80.2167 77.6843 79.4799 77.0776 78.863 76.3848L58.4514 88.1697C58.7432 89.0514 58.9011 89.9945 58.9011 90.9751C58.9011 95.872 54.9224 99.8763 50 99.8763C45.0776 99.8763 41.0989 95.8975 41.0989 90.9751C41.0989 90.1002 41.2246 89.255 41.4589 88.4567L20.9276 76.6026C20.3555 77.2031 19.6894 77.7338 18.9353 78.1718C14.6505 80.6202 9.21803 79.1665 6.76958 74.9072C4.32113 70.6479 5.7749 65.2154 10.0342 62.7415C10.7873 62.3086 11.577 61.9976 12.3806 61.8027V38.0793C11.5677 37.8847 10.7691 37.5719 10.0087 37.1348C5.74939 34.6863 4.29563 29.2283 6.74408 24.9691C9.19252 20.7098 14.6505 19.256 18.9098 21.7045C19.6719 22.1471 20.3442 22.6845 20.9204 23.2929L41.4627 11.4325C41.2259 10.6304 41.0989 9.78082 41.0989 8.90113C41.0989 3.97873 45.0776 0 50 0C54.9224 0 58.9011 3.97873 58.9011 8.90113C58.9011 9.78564 58.7726 10.6397 58.5333 11.4456ZM56.3936 15.0989L76.9793 26.9844C76.343 29.2193 76.5766 31.6974 77.8256 33.8702C79.0787 36.0501 81.12 37.4951 83.3856 38.0582V61.8117C83.2701 61.8401 83.1553 61.8707 83.041 61.9036L56.1546 15.3363C56.2358 15.2587 56.3154 15.1795 56.3936 15.0989ZM43.851 15.3417L16.965 61.9082C16.8488 61.8745 16.7319 61.8431 16.6144 61.814V38.0582C18.8799 37.4951 20.9213 36.0501 22.1744 33.8702C23.4259 31.6931 23.6579 29.2095 23.0168 26.9712L43.5968 15.089C43.6798 15.1749 43.7646 15.2592 43.851 15.3417ZM52.487 17.4513L79.3669 64.0073C78.7653 64.5808 78.2352 65.2491 77.8001 66.0061C77.3675 66.7585 77.0567 67.5484 76.8617 68.3525H23.1387C22.9437 67.5489 22.6328 66.7591 22.1999 66.0061C21.7631 65.254 21.234 64.5894 20.6354 64.0183L47.5204 17.4535C48.3073 17.6806 49.1392 17.8023 50 17.8023C50.8635 17.8023 51.698 17.6798 52.487 17.4513ZM56.5827 84.9785L77.0347 73.1701C76.9734 72.9774 76.9186 72.7827 76.8703 72.5863H23.1273C23.0988 72.7017 23.068 72.8165 23.035 72.9307L43.5874 84.797C45.2056 83.1175 47.4791 82.074 50 82.074C52.6105 82.074 54.9557 83.1931 56.5827 84.9785Z" fill="#E535AB"/>
</svg>
