<svg width="100" height="100" viewBox="0 0 100 100" fill="none" xmlns="http://www.w3.org/2000/svg">
<g clip-path="url(#clip0_333_1066)">
<path d="M49.9981 2.24576H50.8005L50.8028 2.2353C77.4953 2.66313 99.0019 24.4381 99.0019 51.227C99.0019 72.8393 85.0142 91.1863 65.5888 97.6912C64.5864 97.8705 64.0906 97.6293 63.8447 97.405C63.5625 97.1477 63.4036 96.7261 63.4036 96.2626C63.4036 95.7208 63.4098 94.7698 63.4182 93.494C63.4225 92.8433 63.4273 92.1081 63.4322 91.2996C63.4465 88.9101 63.4608 85.8892 63.4608 82.5433C63.4608 78.8013 62.4739 75.9624 61.0867 74.0388C66.121 73.3119 71.2612 71.8351 75.2959 68.4598C79.8926 64.6143 82.8958 58.4441 82.8958 48.6231C82.8958 43.1433 81.0215 38.5965 77.8991 34.9907C78.5895 32.9883 79.7218 28.027 77.1878 21.6069L77.0138 21.166L76.5623 21.0216L76.2577 21.974C76.5623 21.0216 76.5613 21.0213 76.5603 21.0209L76.5583 21.0203L76.5538 21.0189L76.5438 21.0158L76.519 21.0086C76.5003 21.0033 76.4775 20.9971 76.4503 20.9903C76.396 20.9767 76.3248 20.9609 76.2363 20.9449C76.0593 20.913 75.8141 20.8809 75.4987 20.8665C74.8673 20.8377 73.96 20.8801 72.761 21.1331C70.4279 21.6254 66.9983 22.9127 62.3413 26.0143C58.3857 24.9621 54.1734 24.4359 49.9989 24.4178L49.9902 24.4178C45.8187 24.4359 41.6137 24.9639 37.6642 26.0144C33.0006 22.9108 29.5667 21.6234 27.231 21.1316C26.0307 20.8789 25.1225 20.8369 24.4905 20.866C24.1749 20.8805 23.9294 20.9128 23.7523 20.9448C23.6637 20.9609 23.5924 20.9768 23.5381 20.9904C23.511 20.9972 23.4881 21.0034 23.4694 21.0087L23.4446 21.016L23.4346 21.0191L23.4301 21.0205L23.4281 21.0211C23.4271 21.0214 23.4261 21.0217 23.7313 21.974L23.4261 21.0217L22.9748 21.1664L22.8009 21.6073C20.2688 28.0298 21.4108 32.9898 22.1014 34.9914C18.9897 38.5952 17.0988 43.1411 17.0988 48.6231C17.0988 58.4221 20.0954 64.5964 24.6804 68.4552C28.7093 71.8461 33.8436 73.3422 38.8728 74.0807C37.9308 75.4006 37.1805 77.1488 36.8032 79.3179C35.4116 79.8813 33.322 80.4873 31.1225 80.2912C28.7152 80.0765 26.0848 78.8974 24.0215 75.3676L24.0158 75.3575C24.0085 75.3448 23.9986 75.3275 23.9861 75.3061C23.9611 75.2632 23.9255 75.2035 23.8793 75.1293C23.787 74.981 23.6521 74.774 23.4751 74.5269C23.1221 74.0341 22.5961 73.3747 21.8992 72.702C20.5123 71.3633 18.3871 69.9154 15.5608 69.7179L15.533 69.7159L15.5051 69.7155L15.4911 70.7154C15.5051 69.7155 15.5048 69.7155 15.5044 69.7155L15.5036 69.7155L15.5017 69.7155L15.4966 69.7154L15.481 69.7154C15.4684 69.7153 15.4512 69.7153 15.4299 69.7155C15.3875 69.7158 15.3285 69.7167 15.2565 69.7191C15.1135 69.724 14.9149 69.7348 14.691 69.7592C14.2829 69.8036 13.6392 69.9071 13.1234 70.2001C12.8548 70.3527 12.5278 70.609 12.3453 71.0267C12.1492 71.4755 12.1915 71.9433 12.3638 72.3546C12.6666 73.0776 13.4385 73.7961 14.581 74.5784L14.6479 74.6242L14.714 74.6552L14.7151 74.6557L14.7153 74.6558L14.7177 74.6569L14.7249 74.6607C14.738 74.6674 14.7627 74.6805 14.7981 74.7005C14.8687 74.7406 14.9818 74.8085 15.1291 74.9092C15.4236 75.1106 15.8558 75.4439 16.3609 75.9505C17.3662 76.9587 18.6743 78.6669 19.7592 81.4176L19.764 81.4312C19.7727 81.4558 19.7848 81.4887 19.8004 81.5292C19.8316 81.6103 19.877 81.722 19.9388 81.8592C20.0624 82.1332 20.2519 82.5102 20.5243 82.9472C21.069 83.8208 21.9497 84.9415 23.3026 85.9559C25.8869 87.8937 30.0519 89.34 36.5478 88.188C36.5596 90.1008 36.576 91.9019 36.5892 93.3465C36.6017 94.7089 36.6113 95.7543 36.6113 96.2775C36.6113 96.7286 36.4522 97.1502 36.1651 97.4122C35.9137 97.6416 35.4178 97.8814 34.439 97.7143C15.0038 91.2116 1 72.8673 1 51.2437C1 24.1839 22.9418 2.24576 49.9981 2.24576Z" fill="white" stroke="#202020" stroke-width="2"/>
</g>
<defs>
<clipPath id="clip0_333_1066">
<rect width="100" height="100" fill="white"/>
</clipPath>
</defs>
</svg>
