<svg width="100" height="100" viewBox="0 0 100 100" fill="none" xmlns="http://www.w3.org/2000/svg">
<g clip-path="url(#clip0_333_1053)">
<path d="M49.5049 18.5292C44.8842 21.779 39.6472 25.4624 36.8412 31.5564C31.9673 42.1883 46.8142 53.7854 47.4488 54.2739C47.5963 54.3873 47.7728 54.444 47.9488 54.444C48.1357 54.444 48.3228 54.3801 48.4748 54.2528C48.7695 54.0063 48.8531 53.5875 48.6762 53.2465C48.6225 53.143 43.2931 42.7914 43.4912 35.3652C43.5613 32.7787 47.181 29.8445 51.0131 26.738C54.5229 23.8927 58.5014 20.6679 60.8291 16.8954C65.9393 8.59145 60.2596 0.426182 60.2016 0.344541C59.976 0.0277433 59.5596 -0.0869056 59.2036 0.0691497C58.8479 0.226182 58.6508 0.610753 58.7321 0.991028C58.7436 1.04513 59.8481 6.44476 56.7746 12.0079C55.5086 14.3067 52.7266 16.2634 49.5049 18.5292Z" fill="#DB380E"/>
<path d="M68.9723 22.1909C69.2983 21.9454 69.394 21.4975 69.1969 21.1401C68.9995 20.7827 68.5698 20.6251 68.1882 20.77C67.4032 21.0684 48.9662 28.1753 48.9662 36.7622C48.9662 42.6816 51.4947 45.8086 53.341 48.0922C54.0652 48.9879 54.6904 49.7613 54.8965 50.4217C55.4766 52.3246 54.1023 55.7641 53.5244 56.9289C53.3578 57.2637 53.4394 57.6696 53.7228 57.9141C53.876 58.0463 54.0672 58.1135 54.2586 58.1135C54.4215 58.1135 54.5852 58.0651 54.7266 57.9666C55.0436 57.7463 62.4741 52.4928 61.1414 46.1633C60.645 43.7574 59.4627 41.9996 58.4195 40.4484C56.8035 38.0451 55.6363 36.3091 57.407 33.1029C59.4817 29.363 68.8772 22.262 68.9723 22.1909Z" fill="#DB380E"/>
<path d="M20.9801 58.2494C20.6641 59.1957 20.8133 60.1344 21.4112 60.9649C23.4098 63.7397 30.4893 65.2674 41.3464 65.2674C41.347 65.2674 41.3474 65.2674 41.3478 65.2674C42.8189 65.2674 44.372 65.2385 45.9628 65.1815C63.3213 64.5602 69.7596 59.1524 70.0252 58.9225C70.3147 58.6719 70.392 58.2547 70.2121 57.9172C70.0321 57.5799 69.644 57.4104 69.2731 57.5125C63.1596 59.1817 51.7441 59.7742 43.8261 59.7742C34.9661 59.7742 30.454 59.136 29.3493 58.6647C29.9161 57.8863 33.4122 56.4965 37.7445 55.6443C38.1585 55.5631 38.4431 55.1807 38.4021 54.7607C38.3611 54.3408 38.0083 54.0205 37.5862 54.0205C35.0468 54.0205 22.3114 54.2244 20.9801 58.2494Z" fill="#73A1FB"/>
<path d="M79.0652 52.6795C75.4849 52.6795 72.0897 54.474 71.9468 54.55C71.6157 54.7274 71.4477 55.1071 71.5386 55.4719C71.6298 55.8362 71.9573 56.0922 72.3329 56.0926C72.4089 56.0926 79.97 56.1545 80.6548 60.4747C81.2615 64.2016 73.5007 70.2403 70.4591 72.2528C70.1306 72.4702 70.003 72.8901 70.1556 73.2534C70.2854 73.5626 70.5864 73.756 70.911 73.756C70.9677 73.756 71.0251 73.7501 71.0821 73.738C71.804 73.5835 88.7396 69.8515 86.949 59.9911C85.8566 53.9481 82.0585 52.6795 79.0652 52.6795Z" fill="#73A1FB"/>
<path d="M67.4509 71.0462C67.5099 70.7304 67.3784 70.4091 67.1155 70.2245L63.0548 67.3802C62.8567 67.2415 62.6065 67.1979 62.3741 67.2595C62.3317 67.2702 58.0852 68.3866 51.92 69.0712C49.4731 69.3456 46.7324 69.4905 43.9937 69.4905C37.8301 69.4905 33.8 68.7663 33.213 68.2351C33.1353 68.0858 33.1599 68.0181 33.1738 67.9804C33.2804 67.6839 33.8519 67.3315 34.2203 67.1921C34.6271 67.0415 34.8464 66.5997 34.7199 66.1848C34.5937 65.7694 34.1658 65.5251 33.7435 65.6265C29.6701 66.6095 27.6782 67.9841 27.8232 69.712C28.0806 72.7757 35.1767 74.3482 41.1758 74.7638C42.0385 74.8228 42.9715 74.8527 43.9482 74.8527C43.9488 74.8527 43.9492 74.8527 43.9498 74.8527C53.9252 74.8527 66.7136 71.7228 66.8413 71.6909C67.1536 71.6148 67.3917 71.3626 67.4509 71.0462Z" fill="#73A1FB"/>
<path d="M36.8364 77.6212C37.1441 77.4212 37.2804 77.0409 37.1712 76.6907C37.0624 76.3405 36.7349 76.1104 36.3669 76.1153C35.821 76.1298 31.0253 76.3462 30.6896 79.3995C30.588 80.312 30.8493 81.1458 31.4667 81.8773C33.1886 83.9179 37.8366 85.1308 45.674 85.5851C46.6011 85.6408 47.5429 85.6687 48.4736 85.6687C58.4375 85.6687 65.1481 82.5489 65.4291 82.4161C65.7016 82.2872 65.8813 82.0194 65.8973 81.7187C65.9133 81.4179 65.7631 81.1325 65.5061 80.9753L60.3742 77.8425C60.1961 77.7339 59.983 77.6979 59.7799 77.7395C59.7475 77.7464 56.4891 78.4222 51.5717 79.0897C50.6412 79.2163 49.4759 79.2806 48.1088 79.2806C43.1966 79.2806 37.7329 78.478 36.6851 77.9524C36.6698 77.8544 36.6892 77.7298 36.8364 77.6212Z" fill="#73A1FB"/>
<path d="M43.8299 95.0882C66.653 95.0689 78.9025 91.0101 81.2622 88.456C82.0976 87.5525 82.1878 86.697 82.1169 86.1382C81.9415 84.7632 80.689 83.9214 80.547 83.83C80.2044 83.6097 79.7446 83.6673 79.4774 83.9755C79.2108 84.2837 79.2046 84.7341 79.4722 85.0421C79.6161 85.2273 79.6993 85.5372 79.2784 85.9585C78.3351 86.8396 68.8204 89.514 52.9783 90.3175C50.8082 90.4302 48.532 90.4876 46.2135 90.488C32.0292 90.488 21.6485 88.5451 20.2858 87.413C20.811 86.6583 24.4829 85.4527 28.3878 84.7706C28.8279 84.6939 29.1251 84.2792 29.057 83.8378C28.9888 83.3966 28.582 83.0929 28.1372 83.1505C28.0271 83.1655 27.6532 83.1878 27.2204 83.2144C20.7774 83.6077 13.3319 84.4845 12.9434 87.8042C12.8254 88.8158 13.126 89.7341 13.8372 90.5333C15.5772 92.4884 20.5786 95.0878 43.8291 95.0878C43.8295 95.0882 43.8295 95.0882 43.8299 95.0882Z" fill="#73A1FB"/>
<path d="M85.7451 89.1757C85.4224 89.0265 85.0412 89.1019 84.8005 89.3617C84.7671 89.3978 81.3357 92.9859 71.0185 95.0929C67.0686 95.8844 59.6545 96.2857 48.982 96.2857C38.2896 96.2857 28.1152 95.865 28.0138 95.8607C27.5888 95.84 27.2253 96.149 27.1675 96.5674C27.1095 96.9853 27.379 97.3795 27.7894 97.4771C27.8952 97.5021 38.558 100 53.1369 100C60.1294 100 66.9337 99.4324 73.3612 98.3117C85.3459 96.2107 86.1849 90.2681 86.2148 90.0162C86.2566 89.664 86.0672 89.325 85.7451 89.1757Z" fill="#73A1FB"/>
</g>
<defs>
<clipPath id="clip0_333_1053">
<rect width="100" height="100" fill="white"/>
</clipPath>
</defs>
</svg>
