<svg width="100" height="100" viewBox="0 0 100 100" fill="none" xmlns="http://www.w3.org/2000/svg">
<path d="M50 93.75C38.5156 93.6304 27.549 88.9541 19.5121 80.7497C11.4752 72.5452 7.02628 61.4844 7.14375 50C7.12171 38.4446 11.6242 27.3397 19.6875 19.0625C23.6249 15.0054 28.3366 11.78 33.5435 9.57742C38.7504 7.37485 44.3464 6.23993 50 6.23993C55.6536 6.23993 61.2496 7.37485 66.4565 9.57742C71.6634 11.78 76.3751 15.0054 80.3125 19.0625C88.3758 27.3397 92.8783 38.4446 92.8562 50C92.9737 61.4844 88.5248 72.5452 80.4879 80.7497C72.451 88.9541 61.4844 93.6304 50 93.75Z" fill="#CE3F31"/>
<path d="M37.0907 71.9219H35.8406C34.7386 71.9401 33.6385 71.8215 32.5656 71.5687C31.5913 71.2952 30.7433 70.6894 30.1688 69.8562C29.477 68.9136 29.0371 67.81 28.8906 66.65C28.6838 64.8577 28.594 63.0539 28.6219 61.25C28.6549 59.4891 28.5714 57.728 28.3719 55.9781C28.2385 54.9134 27.7989 53.9103 27.1063 53.0906C26.6902 52.6696 26.1888 52.3427 25.6357 52.1319C25.0826 51.9212 24.4907 51.8314 23.9 51.8687V48.125C24.4907 48.1623 25.0826 48.0726 25.6357 47.8618C26.1888 47.651 26.6902 47.3241 27.1063 46.9031C27.7989 46.0835 28.2385 45.0804 28.3719 44.0156C28.5714 42.2658 28.6549 40.5046 28.6219 38.7437C28.5915 36.9368 28.6792 35.1299 28.8844 33.3344C29.0309 32.1743 29.4708 31.0708 30.1625 30.1281C30.7371 29.295 31.585 28.6891 32.5594 28.4156C33.6323 28.1629 34.7323 28.0443 35.8344 28.0625H37.0844V31.625H36.3781C34.7948 31.625 33.825 32.0417 33.4688 32.875C32.9702 35.0987 32.7893 37.3818 32.9313 39.6562C33.0953 42.1387 32.649 44.6235 31.6313 46.8937C30.7751 48.4077 29.3572 49.5237 27.6844 50C28.5133 50.2282 29.2889 50.6179 29.9667 51.1466C30.6446 51.6754 31.2113 52.3329 31.6344 53.0812C32.6521 55.3493 33.0995 57.8319 32.9375 60.3125C32.7955 62.5869 32.9765 64.8701 33.475 67.0937C33.8334 67.9271 34.8031 68.3437 36.3844 68.3437H37.0907V71.9219ZM42.0907 62.1062H45.325V51.3125H49.8844L56.0407 62.1062H59.7407L53.25 50.9625C54.921 50.6541 56.423 49.7492 57.4767 48.4161C58.5304 47.0831 59.0639 45.4126 58.9781 43.7156C58.9781 38.4031 55.2281 36.5469 50.0563 36.5469H42.1063L42.0907 62.1062ZM45.325 48.6687V39.1562H49.5719C53.5469 39.1562 55.7282 40.3625 55.7282 43.7156C55.7282 47.0687 53.5406 48.6625 49.5719 48.6625L45.325 48.6687ZM62.6907 28.0719H63.9407C65.0427 28.0536 66.1428 28.1723 67.2157 28.425C68.19 28.6985 69.038 29.3043 69.6125 30.1375C70.3043 31.0802 70.7442 32.1837 70.8906 33.3437C71.0958 35.1392 71.1835 36.9462 71.1531 38.7531C71.1201 40.514 71.2037 42.2751 71.4032 44.025C71.5365 45.0897 71.9762 46.0929 72.6688 46.9125C73.0848 47.3335 73.5863 47.6604 74.1394 47.8712C74.6925 48.0819 75.2843 48.1717 75.875 48.1344V51.8562C75.2843 51.8189 74.6925 51.9087 74.1394 52.1194C73.5863 52.3302 73.0848 52.6571 72.6688 53.0781C71.9762 53.8978 71.5365 54.9009 71.4032 55.9656C71.2037 57.7155 71.1201 59.4766 71.1531 61.2375C71.1835 63.0444 71.0958 64.8514 70.8906 66.6469C70.7442 67.8069 70.3043 68.9104 69.6125 69.8531C69.038 70.6863 68.19 71.2921 67.2157 71.5656C66.1428 71.8184 65.0427 71.937 63.9407 71.9187H62.6907V68.3562H63.3969C64.9802 68.3562 65.95 67.9396 66.3063 67.1062C66.8165 64.88 67.008 62.5926 66.875 60.3125C66.711 57.83 67.1573 55.3452 68.175 53.075C69.0271 51.5691 70.4423 50.4631 72.1094 50C70.4354 49.5244 69.0163 48.4084 68.1594 46.8937C67.1417 44.6235 66.6954 42.1387 66.8594 39.6562C67.0014 37.3818 66.8204 35.0987 66.3219 32.875C65.9636 32.0417 64.9938 31.625 63.4125 31.625H62.7063L62.6907 28.0719Z" fill="white"/>
</svg>
